<mxfile host="65bd71144e">
    <diagram id="fTMLHT3HFaxz6WOldOXO" name="Pagina-1">
        <mxGraphModel dx="752" dy="1644" grid="1" gridSize="10" guides="1" tooltips="1" connect="1" arrows="1" fold="1" page="1" pageScale="1" pageWidth="827" pageHeight="1169" math="0" shadow="0">
            <root>
                <mxCell id="0"/>
                <mxCell id="1" parent="0"/>
                <mxCell id="81" value="" style="edgeStyle=none;html=1;fontSize=14;fillColor=#b0e3e6;strokeColor=#0e8088;entryX=0;entryY=0.5;entryDx=0;entryDy=0;endArrow=none;endFill=0;" parent="1" target="76" edge="1">
                    <mxGeometry relative="1" as="geometry">
                        <mxPoint x="530" y="60" as="sourcePoint"/>
                        <Array as="points">
                            <mxPoint x="560" y="60"/>
                            <mxPoint x="560" y="80"/>
                        </Array>
                    </mxGeometry>
                </mxCell>
                <mxCell id="3" value="CORSI DI LAUREA" style="swimlane;fontStyle=0;childLayout=stackLayout;horizontal=1;startSize=30;horizontalStack=0;resizeParent=1;resizeParentMax=0;resizeLast=0;collapsible=1;marginBottom=0;whiteSpace=wrap;html=1;" parent="1" vertex="1">
                    <mxGeometry x="390" y="15" width="140" height="240" as="geometry">
                        <mxRectangle x="350" y="10" width="150" height="30" as="alternateBounds"/>
                    </mxGeometry>
                </mxCell>
                <mxCell id="21" value="ID&lt;span style=&quot;white-space: pre;&quot;&gt;&#9;&lt;/span&gt;" style="text;strokeColor=#BD7000;fillColor=#f0a30a;align=left;verticalAlign=middle;spacingLeft=4;spacingRight=4;overflow=hidden;points=[[0,0.5],[1,0.5]];portConstraint=eastwest;rotatable=0;whiteSpace=wrap;html=1;fontColor=#000000;" parent="3" vertex="1">
                    <mxGeometry y="30" width="140" height="30" as="geometry"/>
                </mxCell>
                <mxCell id="22" value="ID DIPARTOMENTO" style="text;strokeColor=#C73500;fillColor=#fa6800;align=left;verticalAlign=middle;spacingLeft=4;spacingRight=4;overflow=hidden;points=[[0,0.5],[1,0.5]];portConstraint=eastwest;rotatable=0;whiteSpace=wrap;html=1;fontColor=#000000;" parent="3" vertex="1">
                    <mxGeometry y="60" width="140" height="30" as="geometry"/>
                </mxCell>
                <mxCell id="27" value="NOME" style="text;strokeColor=#BD7000;fillColor=#f0a30a;align=left;verticalAlign=middle;spacingLeft=4;spacingRight=4;overflow=hidden;points=[[0,0.5],[1,0.5]];portConstraint=eastwest;rotatable=0;whiteSpace=wrap;html=1;fontColor=#000000;" parent="3" vertex="1">
                    <mxGeometry y="90" width="140" height="30" as="geometry"/>
                </mxCell>
                <mxCell id="23" value="CODICE" style="text;strokeColor=#C73500;fillColor=#fa6800;align=left;verticalAlign=middle;spacingLeft=4;spacingRight=4;overflow=hidden;points=[[0,0.5],[1,0.5]];portConstraint=eastwest;rotatable=0;whiteSpace=wrap;html=1;fontColor=#000000;" parent="3" vertex="1">
                    <mxGeometry y="120" width="140" height="30" as="geometry"/>
                </mxCell>
                <mxCell id="24" value="ANNO ACCADEMICO" style="text;strokeColor=#BD7000;fillColor=#f0a30a;align=left;verticalAlign=middle;spacingLeft=4;spacingRight=4;overflow=hidden;points=[[0,0.5],[1,0.5]];portConstraint=eastwest;rotatable=0;whiteSpace=wrap;html=1;fontColor=#000000;" parent="3" vertex="1">
                    <mxGeometry y="150" width="140" height="30" as="geometry"/>
                </mxCell>
                <mxCell id="25" value="DURATA" style="text;strokeColor=#C73500;fillColor=#fa6800;align=left;verticalAlign=middle;spacingLeft=4;spacingRight=4;overflow=hidden;points=[[0,0.5],[1,0.5]];portConstraint=eastwest;rotatable=0;whiteSpace=wrap;html=1;fontColor=#000000;" parent="3" vertex="1">
                    <mxGeometry y="180" width="140" height="30" as="geometry"/>
                </mxCell>
                <mxCell id="26" value="COORDINATORE" style="text;strokeColor=#BD7000;fillColor=#f0a30a;align=left;verticalAlign=middle;spacingLeft=4;spacingRight=4;overflow=hidden;points=[[0,0.5],[1,0.5]];portConstraint=eastwest;rotatable=0;whiteSpace=wrap;html=1;fontColor=#000000;" parent="3" vertex="1">
                    <mxGeometry y="210" width="140" height="30" as="geometry"/>
                </mxCell>
                <mxCell id="72" value="" style="edgeStyle=none;html=1;fontSize=14;strokeColor=#0e8088;fillColor=#b0e3e6;exitX=1;exitY=0.5;exitDx=0;exitDy=0;entryX=0;entryY=0.5;entryDx=0;entryDy=0;endArrow=none;endFill=0;" parent="1" source="8" target="12" edge="1">
                    <mxGeometry relative="1" as="geometry">
                        <mxPoint x="150" y="80" as="sourcePoint"/>
                        <Array as="points">
                            <mxPoint x="220" y="55"/>
                        </Array>
                    </mxGeometry>
                </mxCell>
                <mxCell id="7" value="DIPARTIMENTI" style="swimlane;fontStyle=0;childLayout=stackLayout;horizontal=1;startSize=30;horizontalStack=0;resizeParent=1;resizeParentMax=0;resizeLast=0;collapsible=1;marginBottom=0;whiteSpace=wrap;html=1;" parent="1" vertex="1">
                    <mxGeometry x="10" y="10" width="140" height="210" as="geometry"/>
                </mxCell>
                <mxCell id="8" value="ID" style="text;align=left;verticalAlign=middle;spacingLeft=4;spacingRight=4;overflow=hidden;points=[[0,0.5],[1,0.5]];portConstraint=eastwest;rotatable=0;whiteSpace=wrap;html=1;fillColor=#f0a30a;fontColor=#000000;strokeColor=#BD7000;" parent="7" vertex="1">
                    <mxGeometry y="30" width="140" height="30" as="geometry"/>
                </mxCell>
                <mxCell id="10" value="NOME&lt;span style=&quot;white-space: pre;&quot;&gt;&#9;&lt;span style=&quot;white-space: pre;&quot;&gt;&#9;&lt;/span&gt;&lt;/span&gt;" style="text;align=left;verticalAlign=middle;spacingLeft=4;spacingRight=4;overflow=hidden;points=[[0,0.5],[1,0.5]];portConstraint=eastwest;rotatable=0;whiteSpace=wrap;html=1;fillColor=#fa6800;fontColor=#000000;strokeColor=#C73500;" parent="7" vertex="1">
                    <mxGeometry y="60" width="140" height="30" as="geometry"/>
                </mxCell>
                <mxCell id="5" value="COORDINATORE" style="text;strokeColor=#BD7000;fillColor=#f0a30a;align=left;verticalAlign=middle;spacingLeft=4;spacingRight=4;overflow=hidden;points=[[0,0.5],[1,0.5]];portConstraint=eastwest;rotatable=0;whiteSpace=wrap;html=1;fontColor=#000000;" parent="7" vertex="1">
                    <mxGeometry y="90" width="140" height="30" as="geometry"/>
                </mxCell>
                <mxCell id="6" value="SEDE" style="text;strokeColor=#C73500;fillColor=#fa6800;align=left;verticalAlign=middle;spacingLeft=4;spacingRight=4;overflow=hidden;points=[[0,0.5],[1,0.5]];portConstraint=eastwest;rotatable=0;whiteSpace=wrap;html=1;fontColor=#000000;" parent="7" vertex="1">
                    <mxGeometry y="120" width="140" height="30" as="geometry"/>
                </mxCell>
                <mxCell id="142" value="EMAIL" style="text;strokeColor=#BD7000;fillColor=#f0a30a;align=left;verticalAlign=middle;spacingLeft=4;spacingRight=4;overflow=hidden;points=[[0,0.5],[1,0.5]];portConstraint=eastwest;rotatable=0;whiteSpace=wrap;html=1;fontColor=#000000;" vertex="1" parent="7">
                    <mxGeometry y="150" width="140" height="30" as="geometry"/>
                </mxCell>
                <mxCell id="143" value="TELEFONO" style="text;strokeColor=#C73500;fillColor=#fa6800;align=left;verticalAlign=middle;spacingLeft=4;spacingRight=4;overflow=hidden;points=[[0,0.5],[1,0.5]];portConstraint=eastwest;rotatable=0;whiteSpace=wrap;html=1;fontColor=#000000;" vertex="1" parent="7">
                    <mxGeometry y="180" width="140" height="30" as="geometry"/>
                </mxCell>
                <mxCell id="12" value="" style="rhombus;whiteSpace=wrap;html=1;" parent="1" vertex="1">
                    <mxGeometry x="230" y="15" width="80" height="80" as="geometry"/>
                </mxCell>
                <mxCell id="14" value="INSEGNANTI" style="swimlane;fontStyle=0;childLayout=stackLayout;horizontal=1;startSize=30;horizontalStack=0;resizeParent=1;resizeParentMax=0;resizeLast=0;collapsible=1;marginBottom=0;whiteSpace=wrap;html=1;" parent="1" vertex="1">
                    <mxGeometry x="320" y="360" width="160" height="270" as="geometry"/>
                </mxCell>
                <mxCell id="15" value="ID" style="text;strokeColor=#BD7000;fillColor=#f0a30a;align=left;verticalAlign=middle;spacingLeft=4;spacingRight=4;overflow=hidden;points=[[0,0.5],[1,0.5]];portConstraint=eastwest;rotatable=0;whiteSpace=wrap;html=1;fontColor=#000000;" parent="14" vertex="1">
                    <mxGeometry y="30" width="160" height="30" as="geometry"/>
                </mxCell>
                <mxCell id="17" value="NOME" style="text;strokeColor=#BD7000;fillColor=#f0a30a;align=left;verticalAlign=middle;spacingLeft=4;spacingRight=4;overflow=hidden;points=[[0,0.5],[1,0.5]];portConstraint=eastwest;rotatable=0;whiteSpace=wrap;html=1;fontColor=#000000;" parent="14" vertex="1">
                    <mxGeometry y="60" width="160" height="30" as="geometry"/>
                </mxCell>
                <mxCell id="4" value="COGNOME" style="text;strokeColor=#C73500;fillColor=#fa6800;align=left;verticalAlign=middle;spacingLeft=4;spacingRight=4;overflow=hidden;points=[[0,0.5],[1,0.5]];portConstraint=eastwest;rotatable=0;whiteSpace=wrap;html=1;fontColor=#000000;" parent="14" vertex="1">
                    <mxGeometry y="90" width="160" height="30" as="geometry"/>
                </mxCell>
                <mxCell id="28" value="CODICE FISCALE" style="text;strokeColor=#BD7000;fillColor=#f0a30a;align=left;verticalAlign=middle;spacingLeft=4;spacingRight=4;overflow=hidden;points=[[0,0.5],[1,0.5]];portConstraint=eastwest;rotatable=0;whiteSpace=wrap;html=1;fontColor=#000000;" parent="14" vertex="1">
                    <mxGeometry y="120" width="160" height="30" as="geometry"/>
                </mxCell>
                <mxCell id="29" value="CARTA D'IDENTITA'" style="text;strokeColor=#C73500;fillColor=#fa6800;align=left;verticalAlign=middle;spacingLeft=4;spacingRight=4;overflow=hidden;points=[[0,0.5],[1,0.5]];portConstraint=eastwest;rotatable=0;whiteSpace=wrap;html=1;fontColor=#000000;" parent="14" vertex="1">
                    <mxGeometry y="150" width="160" height="30" as="geometry"/>
                </mxCell>
                <mxCell id="30" value="DATA DI NASCITA" style="text;strokeColor=#BD7000;fillColor=#f0a30a;align=left;verticalAlign=middle;spacingLeft=4;spacingRight=4;overflow=hidden;points=[[0,0.5],[1,0.5]];portConstraint=eastwest;rotatable=0;whiteSpace=wrap;html=1;fontColor=#000000;" parent="14" vertex="1">
                    <mxGeometry y="180" width="160" height="30" as="geometry"/>
                </mxCell>
                <mxCell id="31" value="CATTEDRA" style="text;strokeColor=#C73500;fillColor=#fa6800;align=left;verticalAlign=middle;spacingLeft=4;spacingRight=4;overflow=hidden;points=[[0,0.5],[1,0.5]];portConstraint=eastwest;rotatable=0;whiteSpace=wrap;html=1;fontColor=#000000;" parent="14" vertex="1">
                    <mxGeometry y="210" width="160" height="30" as="geometry"/>
                </mxCell>
                <mxCell id="32" value="ANNI DI INSEGNAMENTO" style="text;strokeColor=#BD7000;fillColor=#f0a30a;align=left;verticalAlign=middle;spacingLeft=4;spacingRight=4;overflow=hidden;points=[[0,0.5],[1,0.5]];portConstraint=eastwest;rotatable=0;whiteSpace=wrap;html=1;fontColor=#000000;" parent="14" vertex="1">
                    <mxGeometry y="240" width="160" height="30" as="geometry"/>
                </mxCell>
                <mxCell id="107" value="" style="edgeStyle=none;html=1;fontSize=14;fillColor=#b0e3e6;strokeColor=#0e8088;endArrow=none;endFill=0;" parent="1" source="34" target="105" edge="1">
                    <mxGeometry relative="1" as="geometry"/>
                </mxCell>
                <mxCell id="34" value="APPELLO ESAMI" style="swimlane;fontStyle=0;childLayout=stackLayout;horizontal=1;startSize=30;horizontalStack=0;resizeParent=1;resizeParentMax=0;resizeLast=0;collapsible=1;marginBottom=0;whiteSpace=wrap;html=1;" parent="1" vertex="1">
                    <mxGeometry x="10" y="640" width="140" height="210" as="geometry"/>
                </mxCell>
                <mxCell id="35" value="ID" style="text;strokeColor=#BD7000;fillColor=#f0a30a;align=left;verticalAlign=middle;spacingLeft=4;spacingRight=4;overflow=hidden;points=[[0,0.5],[1,0.5]];portConstraint=eastwest;rotatable=0;whiteSpace=wrap;html=1;fontColor=#000000;" parent="34" vertex="1">
                    <mxGeometry y="30" width="140" height="30" as="geometry"/>
                </mxCell>
                <mxCell id="36" value="ID ESAMI" style="text;strokeColor=#C73500;fillColor=#fa6800;align=left;verticalAlign=middle;spacingLeft=4;spacingRight=4;overflow=hidden;points=[[0,0.5],[1,0.5]];portConstraint=eastwest;rotatable=0;whiteSpace=wrap;html=1;fontColor=#000000;" parent="34" vertex="1">
                    <mxGeometry y="60" width="140" height="30" as="geometry"/>
                </mxCell>
                <mxCell id="37" value="DATA" style="text;strokeColor=#BD7000;fillColor=#f0a30a;align=left;verticalAlign=middle;spacingLeft=4;spacingRight=4;overflow=hidden;points=[[0,0.5],[1,0.5]];portConstraint=eastwest;rotatable=0;whiteSpace=wrap;html=1;fontColor=#000000;" parent="34" vertex="1">
                    <mxGeometry y="90" width="140" height="30" as="geometry"/>
                </mxCell>
                <mxCell id="38" value="ORA" style="text;strokeColor=#C73500;fillColor=#fa6800;align=left;verticalAlign=middle;spacingLeft=4;spacingRight=4;overflow=hidden;points=[[0,0.5],[1,0.5]];portConstraint=eastwest;rotatable=0;whiteSpace=wrap;html=1;fontColor=#000000;" parent="34" vertex="1">
                    <mxGeometry y="120" width="140" height="30" as="geometry"/>
                </mxCell>
                <mxCell id="39" value="SEDE" style="text;strokeColor=#BD7000;fillColor=#f0a30a;align=left;verticalAlign=middle;spacingLeft=4;spacingRight=4;overflow=hidden;points=[[0,0.5],[1,0.5]];portConstraint=eastwest;rotatable=0;whiteSpace=wrap;html=1;fontColor=#000000;" parent="34" vertex="1">
                    <mxGeometry y="150" width="140" height="30" as="geometry"/>
                </mxCell>
                <mxCell id="40" value="AULA" style="text;strokeColor=#C73500;fillColor=#fa6800;align=left;verticalAlign=middle;spacingLeft=4;spacingRight=4;overflow=hidden;points=[[0,0.5],[1,0.5]];portConstraint=eastwest;rotatable=0;whiteSpace=wrap;html=1;fontColor=#000000;" parent="34" vertex="1">
                    <mxGeometry y="180" width="140" height="30" as="geometry"/>
                </mxCell>
                <mxCell id="109" value="" style="edgeStyle=none;html=1;fontSize=14;fillColor=#b0e3e6;strokeColor=#0e8088;endArrow=none;endFill=0;exitX=0;exitY=0.5;exitDx=0;exitDy=0;" parent="1" source="43" edge="1">
                    <mxGeometry relative="1" as="geometry">
                        <mxPoint x="580" y="200" as="sourcePoint"/>
                        <mxPoint x="640" y="120" as="targetPoint"/>
                        <Array as="points">
                            <mxPoint x="560" y="315"/>
                            <mxPoint x="560" y="190"/>
                        </Array>
                    </mxGeometry>
                </mxCell>
                <mxCell id="41" value="STUDENTE" style="swimlane;fontStyle=0;childLayout=stackLayout;horizontal=1;startSize=30;horizontalStack=0;resizeParent=1;resizeParentMax=0;resizeLast=0;collapsible=1;marginBottom=0;whiteSpace=wrap;html=1;" parent="1" vertex="1">
                    <mxGeometry x="600" y="240" width="190" height="300" as="geometry"/>
                </mxCell>
                <mxCell id="42" value="ID" style="text;strokeColor=#BD7000;fillColor=#f0a30a;align=left;verticalAlign=middle;spacingLeft=4;spacingRight=4;overflow=hidden;points=[[0,0.5],[1,0.5]];portConstraint=eastwest;rotatable=0;whiteSpace=wrap;html=1;fontColor=#000000;" parent="41" vertex="1">
                    <mxGeometry y="30" width="190" height="30" as="geometry"/>
                </mxCell>
                <mxCell id="43" value="ID_CORSO_LAUREA" style="text;strokeColor=#C73500;fillColor=#fa6800;align=left;verticalAlign=middle;spacingLeft=4;spacingRight=4;overflow=hidden;points=[[0,0.5],[1,0.5]];portConstraint=eastwest;rotatable=0;whiteSpace=wrap;html=1;fontColor=#000000;" parent="41" vertex="1">
                    <mxGeometry y="60" width="190" height="30" as="geometry"/>
                </mxCell>
                <mxCell id="44" value="NOME" style="text;strokeColor=#BD7000;fillColor=#f0a30a;align=left;verticalAlign=middle;spacingLeft=4;spacingRight=4;overflow=hidden;points=[[0,0.5],[1,0.5]];portConstraint=eastwest;rotatable=0;whiteSpace=wrap;html=1;fontColor=#000000;" parent="41" vertex="1">
                    <mxGeometry y="90" width="190" height="30" as="geometry"/>
                </mxCell>
                <mxCell id="45" value="COGNOME" style="text;strokeColor=#C73500;fillColor=#fa6800;align=left;verticalAlign=middle;spacingLeft=4;spacingRight=4;overflow=hidden;points=[[0,0.5],[1,0.5]];portConstraint=eastwest;rotatable=0;whiteSpace=wrap;html=1;fontColor=#000000;" parent="41" vertex="1">
                    <mxGeometry y="120" width="190" height="30" as="geometry"/>
                </mxCell>
                <mxCell id="46" value="MATRICOLA" style="text;strokeColor=#BD7000;fillColor=#f0a30a;align=left;verticalAlign=middle;spacingLeft=4;spacingRight=4;overflow=hidden;points=[[0,0.5],[1,0.5]];portConstraint=eastwest;rotatable=0;whiteSpace=wrap;html=1;fontColor=#000000;" parent="41" vertex="1">
                    <mxGeometry y="150" width="190" height="30" as="geometry"/>
                </mxCell>
                <mxCell id="47" value="ANNO DI ISCRIZIONE" style="text;strokeColor=#C73500;fillColor=#fa6800;align=left;verticalAlign=middle;spacingLeft=4;spacingRight=4;overflow=hidden;points=[[0,0.5],[1,0.5]];portConstraint=eastwest;rotatable=0;whiteSpace=wrap;html=1;fontColor=#000000;" parent="41" vertex="1">
                    <mxGeometry y="180" width="190" height="30" as="geometry"/>
                </mxCell>
                <mxCell id="48" value="ESAMI SOSTENUTI" style="text;strokeColor=#BD7000;fillColor=#f0a30a;align=left;verticalAlign=middle;spacingLeft=4;spacingRight=4;overflow=hidden;points=[[0,0.5],[1,0.5]];portConstraint=eastwest;rotatable=0;whiteSpace=wrap;html=1;fontColor=#000000;" parent="41" vertex="1">
                    <mxGeometry y="210" width="190" height="30" as="geometry"/>
                </mxCell>
                <mxCell id="49" value="MEDIA VOTI" style="text;strokeColor=#C73500;fillColor=#fa6800;align=left;verticalAlign=middle;spacingLeft=4;spacingRight=4;overflow=hidden;points=[[0,0.5],[1,0.5]];portConstraint=eastwest;rotatable=0;whiteSpace=wrap;html=1;fontColor=#000000;" parent="41" vertex="1">
                    <mxGeometry y="240" width="190" height="30" as="geometry"/>
                </mxCell>
                <mxCell id="50" value="PAGAMENTO TASSE" style="text;strokeColor=#BD7000;fillColor=#f0a30a;align=left;verticalAlign=middle;spacingLeft=4;spacingRight=4;overflow=hidden;points=[[0,0.5],[1,0.5]];portConstraint=eastwest;rotatable=0;whiteSpace=wrap;html=1;fontColor=#000000;" parent="41" vertex="1">
                    <mxGeometry y="270" width="190" height="30" as="geometry"/>
                </mxCell>
                <mxCell id="51" value="&lt;h1&gt;&amp;nbsp; &amp;nbsp; &amp;nbsp;&lt;span style=&quot;white-space: pre;&quot;&gt;&#9;&lt;/span&gt;&lt;span style=&quot;white-space: pre;&quot;&gt;&#9;&lt;/span&gt;&lt;span style=&quot;white-space: pre;&quot;&gt;&#9;&lt;/span&gt;&lt;span style=&quot;white-space: pre;&quot;&gt;&#9;&lt;/span&gt;&lt;span style=&quot;white-space: pre;&quot;&gt;&#9;&lt;/span&gt;Esercizio : &lt;font style=&quot;font-size: 16px;&quot;&gt;DB University&lt;/font&gt;&lt;/h1&gt;&lt;div class=&quot;p-rich_text_section&quot; style=&quot;box-sizing: inherit; counter-reset: list-0 0 list-1 0 list-2 0 list-3 0 list-4 0 list-5 0 list-6 0 list-7 0 list-8 0 list-9 0; color: rgb(209, 210, 211); font-family: Slack-Lato, Slack-Fractions, appleLogo, sans-serif; font-size: 15px; font-variant-ligatures: common-ligatures; background-color: rgb(34, 37, 41);&quot;&gt;&amp;nbsp; &amp;nbsp; &amp;nbsp; &amp;nbsp;Modellizzare la struttura di una tabella per memorizzare tutti i dati riguardanti una università:&lt;br style=&quot;box-sizing: inherit;&quot;&gt;&lt;/div&gt;&lt;ul data-stringify-type=&quot;unordered-list&quot; class=&quot;p-rich_text_list p-rich_text_list__bullet&quot; data-indent=&quot;0&quot; data-border=&quot;0&quot; style=&quot;box-sizing: inherit; margin: 0px; padding: 0px; list-style-type: none; color: rgb(209, 210, 211); font-family: Slack-Lato, Slack-Fractions, appleLogo, sans-serif; font-size: 15px; font-variant-ligatures: common-ligatures; background-color: rgb(34, 37, 41);&quot;&gt;&lt;li data-stringify-indent=&quot;0&quot; data-stringify-border=&quot;0&quot; style=&quot;box-sizing: inherit; margin-bottom: 0px; list-style-type: none; margin-left: 28px;&quot;&gt;sono presenti diversi&amp;nbsp;&lt;code data-stringify-type=&quot;code&quot; class=&quot;c-mrkdwn__code&quot; style=&quot;box-sizing: inherit; background-color: rgba(var(--sk_foreground_min,29,28,29),0.04); border: 1px solid var(--saf-0); border-radius: 3px; color: rgb(232, 145, 45); padding: 2px 3px 1px; --saf-0:rgba(var(--sk_foreground_low,29,28,29),0.13); overflow-wrap: break-word; font-size: 12px; font-variant-ligatures: none; line-height: 1.50001; tab-size: 4; word-break: normal; font-family: Monaco, Menlo, Consolas, &amp;quot;Courier New&amp;quot;, monospace !important;&quot;&gt;Dipartimenti&lt;/code&gt;&amp;nbsp;(es.: Lettere e Filosofia, Matematica, Ingegneria ecc.);&lt;/li&gt;&lt;li data-stringify-indent=&quot;0&quot; data-stringify-border=&quot;0&quot; style=&quot;box-sizing: inherit; margin-bottom: 0px; list-style-type: none; margin-left: 28px;&quot;&gt;ogni&amp;nbsp;&lt;code data-stringify-type=&quot;code&quot; class=&quot;c-mrkdwn__code&quot; style=&quot;box-sizing: inherit; background-color: rgba(var(--sk_foreground_min,29,28,29),0.04); border: 1px solid var(--saf-0); border-radius: 3px; color: rgb(232, 145, 45); padding: 2px 3px 1px; --saf-0:rgba(var(--sk_foreground_low,29,28,29),0.13); overflow-wrap: break-word; font-size: 12px; font-variant-ligatures: none; line-height: 1.50001; tab-size: 4; word-break: normal; font-family: Monaco, Menlo, Consolas, &amp;quot;Courier New&amp;quot;, monospace !important;&quot;&gt;Dipartimento&lt;/code&gt;&amp;nbsp;offre più&amp;nbsp;&lt;code data-stringify-type=&quot;code&quot; class=&quot;c-mrkdwn__code&quot; style=&quot;box-sizing: inherit; background-color: rgba(var(--sk_foreground_min,29,28,29),0.04); border: 1px solid var(--saf-0); border-radius: 3px; color: rgb(232, 145, 45); padding: 2px 3px 1px; --saf-0:rgba(var(--sk_foreground_low,29,28,29),0.13); overflow-wrap: break-word; font-size: 12px; font-variant-ligatures: none; line-height: 1.50001; tab-size: 4; word-break: normal; font-family: Monaco, Menlo, Consolas, &amp;quot;Courier New&amp;quot;, monospace !important;&quot;&gt;Corsi di Laurea&lt;/code&gt;&amp;nbsp;(es.: Civiltà e Letterature Classiche, Informatica, Ingegneria Elettronica ecc..)&lt;/li&gt;&lt;li data-stringify-indent=&quot;0&quot; data-stringify-border=&quot;0&quot; style=&quot;box-sizing: inherit; margin-bottom: 0px; list-style-type: none; margin-left: 28px;&quot;&gt;ogni&amp;nbsp;&lt;code data-stringify-type=&quot;code&quot; class=&quot;c-mrkdwn__code&quot; style=&quot;box-sizing: inherit; background-color: rgba(var(--sk_foreground_min,29,28,29),0.04); border: 1px solid var(--saf-0); border-radius: 3px; color: rgb(232, 145, 45); padding: 2px 3px 1px; --saf-0:rgba(var(--sk_foreground_low,29,28,29),0.13); overflow-wrap: break-word; font-size: 12px; font-variant-ligatures: none; line-height: 1.50001; tab-size: 4; word-break: normal; font-family: Monaco, Menlo, Consolas, &amp;quot;Courier New&amp;quot;, monospace !important;&quot;&gt;Corso di Laurea&lt;/code&gt;&amp;nbsp;prevede diversi&amp;nbsp;&lt;code data-stringify-type=&quot;code&quot; class=&quot;c-mrkdwn__code&quot; style=&quot;box-sizing: inherit; background-color: rgba(var(--sk_foreground_min,29,28,29),0.04); border: 1px solid var(--saf-0); border-radius: 3px; color: rgb(232, 145, 45); padding: 2px 3px 1px; --saf-0:rgba(var(--sk_foreground_low,29,28,29),0.13); overflow-wrap: break-word; font-size: 12px; font-variant-ligatures: none; line-height: 1.50001; tab-size: 4; word-break: normal; font-family: Monaco, Menlo, Consolas, &amp;quot;Courier New&amp;quot;, monospace !important;&quot;&gt;Corsi&lt;/code&gt;&amp;nbsp;(es.: Letteratura Latina, Sistemi Operativi 1, Analisi Matematica 2 ecc.);&lt;/li&gt;&lt;li data-stringify-indent=&quot;0&quot; data-stringify-border=&quot;0&quot; style=&quot;box-sizing: inherit; margin-bottom: 0px; list-style-type: none; margin-left: 28px;&quot;&gt;ogni&amp;nbsp;&lt;code data-stringify-type=&quot;code&quot; class=&quot;c-mrkdwn__code&quot; style=&quot;box-sizing: inherit; background-color: rgba(var(--sk_foreground_min,29,28,29),0.04); border: 1px solid var(--saf-0); border-radius: 3px; color: rgb(232, 145, 45); padding: 2px 3px 1px; --saf-0:rgba(var(--sk_foreground_low,29,28,29),0.13); overflow-wrap: break-word; font-size: 12px; font-variant-ligatures: none; line-height: 1.50001; tab-size: 4; word-break: normal; font-family: Monaco, Menlo, Consolas, &amp;quot;Courier New&amp;quot;, monospace !important;&quot;&gt;Corso&lt;/code&gt;&amp;nbsp;può essere tenuto da diversi&amp;nbsp;&lt;code data-stringify-type=&quot;code&quot; class=&quot;c-mrkdwn__code&quot; style=&quot;box-sizing: inherit; background-color: rgba(var(--sk_foreground_min,29,28,29),0.04); border: 1px solid var(--saf-0); border-radius: 3px; color: rgb(232, 145, 45); padding: 2px 3px 1px; --saf-0:rgba(var(--sk_foreground_low,29,28,29),0.13); overflow-wrap: break-word; font-size: 12px; font-variant-ligatures: none; line-height: 1.50001; tab-size: 4; word-break: normal; font-family: Monaco, Menlo, Consolas, &amp;quot;Courier New&amp;quot;, monospace !important;&quot;&gt;Insegnanti&lt;/code&gt;;&lt;/li&gt;&lt;li data-stringify-indent=&quot;0&quot; data-stringify-border=&quot;0&quot; style=&quot;box-sizing: inherit; margin-bottom: 0px; list-style-type: none; margin-left: 28px;&quot;&gt;ogni&amp;nbsp;&lt;code data-stringify-type=&quot;code&quot; class=&quot;c-mrkdwn__code&quot; style=&quot;box-sizing: inherit; background-color: rgba(var(--sk_foreground_min,29,28,29),0.04); border: 1px solid var(--saf-0); border-radius: 3px; color: rgb(232, 145, 45); padding: 2px 3px 1px; --saf-0:rgba(var(--sk_foreground_low,29,28,29),0.13); overflow-wrap: break-word; font-size: 12px; font-variant-ligatures: none; line-height: 1.50001; tab-size: 4; word-break: normal; font-family: Monaco, Menlo, Consolas, &amp;quot;Courier New&amp;quot;, monospace !important;&quot;&gt;Corso&lt;/code&gt;&amp;nbsp;prevede più appelli d'&lt;code data-stringify-type=&quot;code&quot; class=&quot;c-mrkdwn__code&quot; style=&quot;box-sizing: inherit; background-color: rgba(var(--sk_foreground_min,29,28,29),0.04); border: 1px solid var(--saf-0); border-radius: 3px; color: rgb(232, 145, 45); padding: 2px 3px 1px; --saf-0:rgba(var(--sk_foreground_low,29,28,29),0.13); overflow-wrap: break-word; font-size: 12px; font-variant-ligatures: none; line-height: 1.50001; tab-size: 4; word-break: normal; font-family: Monaco, Menlo, Consolas, &amp;quot;Courier New&amp;quot;, monospace !important;&quot;&gt;Esame&lt;/code&gt;;&lt;/li&gt;&lt;li data-stringify-indent=&quot;0&quot; data-stringify-border=&quot;0&quot; style=&quot;box-sizing: inherit; margin-bottom: 0px; list-style-type: none; margin-left: 28px;&quot;&gt;ogni&amp;nbsp;&lt;code data-stringify-type=&quot;code&quot; class=&quot;c-mrkdwn__code&quot; style=&quot;box-sizing: inherit; background-color: rgba(var(--sk_foreground_min,29,28,29),0.04); border: 1px solid var(--saf-0); border-radius: 3px; color: rgb(232, 145, 45); padding: 2px 3px 1px; --saf-0:rgba(var(--sk_foreground_low,29,28,29),0.13); overflow-wrap: break-word; font-size: 12px; font-variant-ligatures: none; line-height: 1.50001; tab-size: 4; word-break: normal; font-family: Monaco, Menlo, Consolas, &amp;quot;Courier New&amp;quot;, monospace !important;&quot;&gt;Studente&lt;/code&gt;&amp;nbsp;è iscritto ad un solo&amp;nbsp;&lt;code data-stringify-type=&quot;code&quot; class=&quot;c-mrkdwn__code&quot; style=&quot;box-sizing: inherit; background-color: rgba(var(--sk_foreground_min,29,28,29),0.04); border: 1px solid var(--saf-0); border-radius: 3px; color: rgb(232, 145, 45); padding: 2px 3px 1px; --saf-0:rgba(var(--sk_foreground_low,29,28,29),0.13); overflow-wrap: break-word; font-size: 12px; font-variant-ligatures: none; line-height: 1.50001; tab-size: 4; word-break: normal; font-family: Monaco, Menlo, Consolas, &amp;quot;Courier New&amp;quot;, monospace !important;&quot;&gt;Corso di Laurea&lt;/code&gt;;&lt;/li&gt;&lt;li data-stringify-indent=&quot;0&quot; data-stringify-border=&quot;0&quot; style=&quot;box-sizing: inherit; margin-bottom: 0px; list-style-type: none; margin-left: 28px;&quot;&gt;ogni&amp;nbsp;&lt;code data-stringify-type=&quot;code&quot; class=&quot;c-mrkdwn__code&quot; style=&quot;box-sizing: inherit; background-color: rgba(var(--sk_foreground_min,29,28,29),0.04); border: 1px solid var(--saf-0); border-radius: 3px; color: rgb(232, 145, 45); padding: 2px 3px 1px; --saf-0:rgba(var(--sk_foreground_low,29,28,29),0.13); overflow-wrap: break-word; font-size: 12px; font-variant-ligatures: none; line-height: 1.50001; tab-size: 4; word-break: normal; font-family: Monaco, Menlo, Consolas, &amp;quot;Courier New&amp;quot;, monospace !important;&quot;&gt;Studente&lt;/code&gt;&amp;nbsp;può iscriversi a più appelli di&amp;nbsp;&lt;code data-stringify-type=&quot;code&quot; class=&quot;c-mrkdwn__code&quot; style=&quot;box-sizing: inherit; background-color: rgba(var(--sk_foreground_min,29,28,29),0.04); border: 1px solid var(--saf-0); border-radius: 3px; color: rgb(232, 145, 45); padding: 2px 3px 1px; --saf-0:rgba(var(--sk_foreground_low,29,28,29),0.13); overflow-wrap: break-word; font-size: 12px; font-variant-ligatures: none; line-height: 1.50001; tab-size: 4; word-break: normal; font-family: Monaco, Menlo, Consolas, &amp;quot;Courier New&amp;quot;, monospace !important;&quot;&gt;Esame&lt;/code&gt;;&lt;/li&gt;&lt;li data-stringify-indent=&quot;0&quot; data-stringify-border=&quot;0&quot; style=&quot;box-sizing: inherit; margin-bottom: 0px; list-style-type: none; margin-left: 28px;&quot;&gt;per ogni appello d'&lt;code data-stringify-type=&quot;code&quot; class=&quot;c-mrkdwn__code&quot; style=&quot;box-sizing: inherit; background-color: rgba(var(--sk_foreground_min,29,28,29),0.04); border: 1px solid var(--saf-0); border-radius: 3px; color: rgb(232, 145, 45); padding: 2px 3px 1px; --saf-0:rgba(var(--sk_foreground_low,29,28,29),0.13); overflow-wrap: break-word; font-size: 12px; font-variant-ligatures: none; line-height: 1.50001; tab-size: 4; word-break: normal; font-family: Monaco, Menlo, Consolas, &amp;quot;Courier New&amp;quot;, monospace !important;&quot;&gt;Esame&lt;/code&gt;&amp;nbsp;a cui lo&amp;nbsp;&lt;code data-stringify-type=&quot;code&quot; class=&quot;c-mrkdwn__code&quot; style=&quot;box-sizing: inherit; background-color: rgba(var(--sk_foreground_min,29,28,29),0.04); border: 1px solid var(--saf-0); border-radius: 3px; color: rgb(232, 145, 45); padding: 2px 3px 1px; --saf-0:rgba(var(--sk_foreground_low,29,28,29),0.13); overflow-wrap: break-word; font-size: 12px; font-variant-ligatures: none; line-height: 1.50001; tab-size: 4; word-break: normal; font-family: Monaco, Menlo, Consolas, &amp;quot;Courier New&amp;quot;, monospace !important;&quot;&gt;Studente&lt;/code&gt;&amp;nbsp;ha partecipato, è necessario memorizzare il voto ottenuto, anche se non sufficiente. Pensiamo a quali entità (tabelle) creare per il nostro database e cerchiamo poi di stabilirne le relazioni. Infine, andiamo a definire le colonne e i tipi di dato di ogni tabella.&lt;/li&gt;&lt;/ul&gt;" style="text;html=1;spacing=5;spacingTop=-20;whiteSpace=wrap;overflow=hidden;rounded=0;fillColor=#fa6800;strokeColor=#C73500;fontColor=#000000;" parent="1" vertex="1">
                    <mxGeometry x="10" y="-380" width="800" height="360" as="geometry"/>
                </mxCell>
                <mxCell id="74" value="1" style="text;html=1;strokeColor=none;fillColor=none;align=center;verticalAlign=middle;whiteSpace=wrap;rounded=0;fontSize=14;" parent="1" vertex="1">
                    <mxGeometry x="170" y="50" width="30" height="30" as="geometry"/>
                </mxCell>
                <mxCell id="75" value="N" style="text;html=1;strokeColor=none;fillColor=none;align=center;verticalAlign=middle;whiteSpace=wrap;rounded=0;fontSize=14;" parent="1" vertex="1">
                    <mxGeometry x="330" y="50" width="30" height="30" as="geometry"/>
                </mxCell>
                <mxCell id="76" value="" style="rhombus;whiteSpace=wrap;html=1;fontSize=14;" parent="1" vertex="1">
                    <mxGeometry x="600" y="40" width="80" height="80" as="geometry"/>
                </mxCell>
                <mxCell id="106" value="" style="edgeStyle=none;html=1;fontSize=14;fillColor=#b0e3e6;strokeColor=#0e8088;endArrow=none;endFill=0;exitX=0;exitY=0;exitDx=0;exitDy=0;" parent="1" source="132" target="105" edge="1">
                    <mxGeometry relative="1" as="geometry"/>
                </mxCell>
                <mxCell id="77" value="CORSI (Materie)" style="swimlane;fontStyle=0;childLayout=stackLayout;horizontal=1;startSize=30;horizontalStack=0;resizeParent=1;resizeParentMax=0;resizeLast=0;collapsible=1;marginBottom=0;whiteSpace=wrap;html=1;fontSize=14;fillStyle=auto;" parent="1" vertex="1">
                    <mxGeometry x="10" y="255" width="160" height="240" as="geometry"/>
                </mxCell>
                <mxCell id="78" value="ID" style="text;strokeColor=#BD7000;fillColor=#f0a30a;align=left;verticalAlign=middle;spacingLeft=4;spacingRight=4;overflow=hidden;points=[[0,0.5],[1,0.5]];portConstraint=eastwest;rotatable=0;whiteSpace=wrap;html=1;fontSize=14;fontColor=#000000;" parent="77" vertex="1">
                    <mxGeometry y="30" width="160" height="30" as="geometry"/>
                </mxCell>
                <mxCell id="80" value="NOME" style="text;strokeColor=#C73500;fillColor=#fa6800;align=left;verticalAlign=middle;spacingLeft=4;spacingRight=4;overflow=hidden;points=[[0,0.5],[1,0.5]];portConstraint=eastwest;rotatable=0;whiteSpace=wrap;html=1;fontSize=14;fontColor=#000000;" parent="77" vertex="1">
                    <mxGeometry y="60" width="160" height="30" as="geometry"/>
                </mxCell>
                <mxCell id="84" value="CODICE" style="text;strokeColor=#BD7000;fillColor=#f0a30a;align=left;verticalAlign=middle;spacingLeft=4;spacingRight=4;overflow=hidden;points=[[0,0.5],[1,0.5]];portConstraint=eastwest;rotatable=0;whiteSpace=wrap;html=1;fontSize=14;fontColor=#000000;" parent="77" vertex="1">
                    <mxGeometry y="90" width="160" height="30" as="geometry"/>
                </mxCell>
                <mxCell id="85" value="DURTA" style="text;strokeColor=#C73500;fillColor=#fa6800;align=left;verticalAlign=middle;spacingLeft=4;spacingRight=4;overflow=hidden;points=[[0,0.5],[1,0.5]];portConstraint=eastwest;rotatable=0;whiteSpace=wrap;html=1;fontSize=14;fontColor=#000000;" parent="77" vertex="1">
                    <mxGeometry y="120" width="160" height="30" as="geometry"/>
                </mxCell>
                <mxCell id="83" value="DOCENTE" style="text;strokeColor=#BD7000;fillColor=#f0a30a;align=left;verticalAlign=middle;spacingLeft=4;spacingRight=4;overflow=hidden;points=[[0,0.5],[1,0.5]];portConstraint=eastwest;rotatable=0;whiteSpace=wrap;html=1;fontSize=14;fontColor=#000000;" parent="77" vertex="1">
                    <mxGeometry y="150" width="160" height="30" as="geometry"/>
                </mxCell>
                <mxCell id="86" value="ASSISTENTE" style="text;strokeColor=#C73500;fillColor=#fa6800;align=left;verticalAlign=middle;spacingLeft=4;spacingRight=4;overflow=hidden;points=[[0,0.5],[1,0.5]];portConstraint=eastwest;rotatable=0;whiteSpace=wrap;html=1;fontSize=14;fontColor=#000000;" parent="77" vertex="1">
                    <mxGeometry y="180" width="160" height="30" as="geometry"/>
                </mxCell>
                <mxCell id="145" value="ID CORSO DI LAUREA" style="text;strokeColor=#BD7000;fillColor=#f0a30a;align=left;verticalAlign=middle;spacingLeft=4;spacingRight=4;overflow=hidden;points=[[0,0.5],[1,0.5]];portConstraint=eastwest;rotatable=0;whiteSpace=wrap;html=1;fontSize=14;fontColor=#000000;" vertex="1" parent="77">
                    <mxGeometry y="210" width="160" height="30" as="geometry"/>
                </mxCell>
                <mxCell id="87" value="" style="rhombus;whiteSpace=wrap;html=1;fontSize=14;" parent="1" vertex="1">
                    <mxGeometry x="240" y="280" width="60" height="60" as="geometry"/>
                </mxCell>
                <mxCell id="98" value="" style="rhombus;whiteSpace=wrap;html=1;fontSize=14;" parent="1" vertex="1">
                    <mxGeometry x="220" y="370" width="60" height="60" as="geometry"/>
                </mxCell>
                <mxCell id="127" style="edgeStyle=none;html=1;fontSize=14;fillColor=#b0e3e6;strokeColor=#0e8088;entryX=1;entryY=0.5;entryDx=0;entryDy=0;exitX=0;exitY=0.5;exitDx=0;exitDy=0;endArrow=none;endFill=0;" parent="1" source="102" target="35" edge="1">
                    <mxGeometry relative="1" as="geometry">
                        <mxPoint x="150" y="760" as="targetPoint"/>
                        <Array as="points">
                            <mxPoint x="240" y="760"/>
                            <mxPoint x="240" y="685"/>
                        </Array>
                    </mxGeometry>
                </mxCell>
                <mxCell id="128" style="edgeStyle=none;html=1;fontSize=14;fillColor=#b0e3e6;strokeColor=#0e8088;endArrow=none;endFill=0;entryX=0;entryY=0.5;entryDx=0;entryDy=0;" parent="1" source="102" target="42" edge="1">
                    <mxGeometry relative="1" as="geometry">
                        <Array as="points">
                            <mxPoint x="480" y="670"/>
                            <mxPoint x="520" y="640"/>
                            <mxPoint x="520" y="440"/>
                            <mxPoint x="520" y="285"/>
                        </Array>
                        <mxPoint x="600" y="260" as="targetPoint"/>
                    </mxGeometry>
                </mxCell>
                <mxCell id="129" style="edgeStyle=none;html=1;fontSize=14;entryX=0;entryY=-0.017;entryDx=0;entryDy=0;entryPerimeter=0;fillColor=#b0e3e6;strokeColor=#0e8088;" parent="1" source="102" target="138" edge="1">
                    <mxGeometry relative="1" as="geometry">
                        <mxPoint x="585.7" y="758.8000000000002" as="targetPoint"/>
                    </mxGeometry>
                </mxCell>
                <mxCell id="102" value="" style="rhombus;whiteSpace=wrap;html=1;fontSize=14;" parent="1" vertex="1">
                    <mxGeometry x="440" y="720" width="80" height="80" as="geometry"/>
                </mxCell>
                <mxCell id="105" value="" style="rhombus;whiteSpace=wrap;html=1;fontSize=14;" parent="1" vertex="1">
                    <mxGeometry x="50" y="540" width="60" height="60" as="geometry"/>
                </mxCell>
                <mxCell id="110" style="edgeStyle=none;html=1;fontSize=14;fillColor=#b0e3e6;strokeColor=#0e8088;exitX=0;exitY=0.5;exitDx=0;exitDy=0;endArrow=none;endFill=0;" parent="1" source="22" edge="1">
                    <mxGeometry relative="1" as="geometry">
                        <mxPoint x="390" y="54.5" as="sourcePoint"/>
                        <mxPoint x="310" y="54.5" as="targetPoint"/>
                        <Array as="points">
                            <mxPoint x="360" y="90"/>
                            <mxPoint x="360" y="55"/>
                        </Array>
                    </mxGeometry>
                </mxCell>
                <mxCell id="113" value="1" style="text;html=1;strokeColor=none;fillColor=none;align=center;verticalAlign=middle;whiteSpace=wrap;rounded=0;fontSize=14;" parent="1" vertex="1">
                    <mxGeometry x="560" y="50" width="30" height="30" as="geometry"/>
                </mxCell>
                <mxCell id="114" value="N" style="text;html=1;strokeColor=none;fillColor=none;align=center;verticalAlign=middle;whiteSpace=wrap;rounded=0;fontSize=14;" parent="1" vertex="1">
                    <mxGeometry x="560" y="200" width="30" height="30" as="geometry"/>
                </mxCell>
                <mxCell id="116" style="edgeStyle=none;html=1;fontSize=14;fillColor=#60a917;strokeColor=#2D7600;exitX=0;exitY=0.5;exitDx=0;exitDy=0;endArrow=none;endFill=0;" parent="1" source="21" target="87" edge="1">
                    <mxGeometry relative="1" as="geometry">
                        <Array as="points">
                            <mxPoint x="370" y="60"/>
                            <mxPoint x="370" y="170"/>
                            <mxPoint x="370" y="310"/>
                        </Array>
                    </mxGeometry>
                </mxCell>
                <mxCell id="117" style="edgeStyle=none;html=1;entryX=0;entryY=0.5;entryDx=0;entryDy=0;fontSize=14;fillColor=#b0e3e6;strokeColor=#0e8088;endArrow=none;endFill=0;" parent="1" target="87" edge="1">
                    <mxGeometry relative="1" as="geometry">
                        <mxPoint x="170" y="310" as="sourcePoint"/>
                    </mxGeometry>
                </mxCell>
                <mxCell id="118" value="N" style="text;html=1;strokeColor=none;fillColor=none;align=center;verticalAlign=middle;whiteSpace=wrap;rounded=0;fontSize=14;" parent="1" vertex="1">
                    <mxGeometry x="340" y="280" width="30" height="30" as="geometry"/>
                </mxCell>
                <mxCell id="119" value="1" style="text;html=1;strokeColor=none;fillColor=none;align=center;verticalAlign=middle;whiteSpace=wrap;rounded=0;fontSize=14;" parent="1" vertex="1">
                    <mxGeometry x="190" y="280" width="30" height="30" as="geometry"/>
                </mxCell>
                <mxCell id="125" style="edgeStyle=none;html=1;entryX=0;entryY=0.5;entryDx=0;entryDy=0;fontSize=14;fillColor=#1ba1e2;strokeColor=#006EAF;endArrow=none;endFill=0;" parent="1" target="98" edge="1">
                    <mxGeometry relative="1" as="geometry">
                        <mxPoint x="170" y="295" as="sourcePoint"/>
                        <Array as="points">
                            <mxPoint x="180" y="295"/>
                            <mxPoint x="180" y="360"/>
                            <mxPoint x="180" y="400"/>
                        </Array>
                    </mxGeometry>
                </mxCell>
                <mxCell id="126" style="edgeStyle=none;html=1;entryX=1;entryY=0.5;entryDx=0;entryDy=0;fontSize=14;fillColor=#b0e3e6;strokeColor=#0e8088;endArrow=none;endFill=0;" parent="1" target="98" edge="1">
                    <mxGeometry relative="1" as="geometry">
                        <mxPoint x="320" y="400" as="sourcePoint"/>
                    </mxGeometry>
                </mxCell>
                <mxCell id="130" value="N" style="text;html=1;strokeColor=none;fillColor=none;align=center;verticalAlign=middle;whiteSpace=wrap;rounded=0;fontSize=14;" parent="1" vertex="1">
                    <mxGeometry x="240" y="730" width="30" height="30" as="geometry"/>
                </mxCell>
                <mxCell id="131" value="N" style="text;html=1;strokeColor=none;fillColor=none;align=center;verticalAlign=middle;whiteSpace=wrap;rounded=0;fontSize=14;" parent="1" vertex="1">
                    <mxGeometry x="80" y="600" width="30" height="30" as="geometry"/>
                </mxCell>
                <mxCell id="132" value="1" style="text;html=1;strokeColor=none;fillColor=none;align=center;verticalAlign=middle;whiteSpace=wrap;rounded=0;fontSize=14;" parent="1" vertex="1">
                    <mxGeometry x="80" y="495" width="30" height="30" as="geometry"/>
                </mxCell>
                <mxCell id="133" value="N" style="text;html=1;strokeColor=none;fillColor=none;align=center;verticalAlign=middle;whiteSpace=wrap;rounded=0;fontSize=14;" parent="1" vertex="1">
                    <mxGeometry x="180" y="370" width="30" height="30" as="geometry"/>
                </mxCell>
                <mxCell id="134" value="N" style="text;html=1;strokeColor=none;fillColor=none;align=center;verticalAlign=middle;whiteSpace=wrap;rounded=0;fontSize=14;" parent="1" vertex="1">
                    <mxGeometry x="280" y="370" width="30" height="30" as="geometry"/>
                </mxCell>
                <mxCell id="135" value="N" style="text;html=1;strokeColor=none;fillColor=none;align=center;verticalAlign=middle;whiteSpace=wrap;rounded=0;fontSize=14;" parent="1" vertex="1">
                    <mxGeometry x="520" y="340" width="30" height="30" as="geometry"/>
                </mxCell>
                <mxCell id="141" value="" style="edgeStyle=none;html=1;fontSize=14;fillColor=#b0e3e6;strokeColor=#0e8088;" parent="1" source="136" target="102" edge="1">
                    <mxGeometry relative="1" as="geometry">
                        <Array as="points"/>
                    </mxGeometry>
                </mxCell>
                <mxCell id="136" value="VALUTAZIONE ESAME" style="swimlane;fontStyle=0;childLayout=stackLayout;horizontal=1;startSize=30;horizontalStack=0;resizeParent=1;resizeParentMax=0;resizeLast=0;collapsible=1;marginBottom=0;whiteSpace=wrap;html=1;fontSize=14;" parent="1" vertex="1">
                    <mxGeometry x="590" y="700" width="170" height="120" as="geometry"/>
                </mxCell>
                <mxCell id="137" value="Esame Superato" style="text;strokeColor=#BD7000;fillColor=#f0a30a;align=center;verticalAlign=middle;spacingLeft=4;spacingRight=4;overflow=hidden;points=[[0,0.5],[1,0.5]];portConstraint=eastwest;rotatable=0;whiteSpace=wrap;html=1;fontSize=14;fontColor=#000000;" parent="136" vertex="1">
                    <mxGeometry y="30" width="170" height="30" as="geometry"/>
                </mxCell>
                <mxCell id="138" value="Voto Ottenuto" style="text;strokeColor=#C73500;fillColor=#fa6800;align=center;verticalAlign=middle;spacingLeft=4;spacingRight=4;overflow=hidden;points=[[0,0.5],[1,0.5]];portConstraint=eastwest;rotatable=0;whiteSpace=wrap;html=1;fontSize=14;fontColor=#000000;" parent="136" vertex="1">
                    <mxGeometry y="60" width="170" height="30" as="geometry"/>
                </mxCell>
                <mxCell id="139" value="Lode" style="text;strokeColor=#BD7000;fillColor=#f0a30a;align=center;verticalAlign=middle;spacingLeft=4;spacingRight=4;overflow=hidden;points=[[0,0.5],[1,0.5]];portConstraint=eastwest;rotatable=0;whiteSpace=wrap;html=1;fontSize=14;fontColor=#000000;" parent="136" vertex="1">
                    <mxGeometry y="90" width="170" height="30" as="geometry"/>
                </mxCell>
            </root>
        </mxGraphModel>
    </diagram>
</mxfile>